/* XPM */
static char *_439_6a0bb00a79e2c88cc649eca62dc49d03f697a2b308672596ad18c83808c8daa4[] = {
/* columns rows colors chars-per-pixel */
"64 64 256 2 ",
"   c black",
".  c #0000A8",
"X  c #00A800",
"o  c #00A8A8",
"O  c #A80000",
"+  c #A800A8",
"@  c #A85400",
"#  c #4C4436",
"$  c gray33",
"%  c #5454FC",
"&  c #524A42",
"*  c #5E5246",
"=  c #736352",
"-  c #685D4C",
";  c #FCFC54",
":  c gray99",
">  c #ECECEC",
",  c gainsboro",
"<  c #D0D0D0",
"1  c #C0C0C0",
"2  c #B4B4B4",
"3  c gray66",
"4  c #989898",
"5  c gray55",
"6  c #7C7C7C",
"7  c gray44",
"8  c #646464",
"9  c gray33",
"0  c #484848",
"q  c gray22",
"w  c #2C2C2C",
"e  c #202020",
"r  c #FC0000",
"t  c #EC0000",
"y  c #E00000",
"u  c #D40000",
"i  c #C80000",
"p  c #BC0000",
"a  c #B00000",
"s  c #A40000",
"d  c #980000",
"f  c #880000",
"g  c #7C0000",
"h  c #700000",
"j  c #640000",
"k  c #580000",
"l  c #4C0000",
"z  c #400000",
"x  c #FCD8D8",
"c  c #FCB8B8",
"v  c #FC9C9C",
"b  c #FC7C7C",
"n  c #FC5C5C",
"m  c #FC4040",
"M  c #FC2020",
"N  c #FC0000",
"B  c #FCA85C",
"V  c #FC9840",
"C  c #FC8820",
"Z  c #FC7800",
"A  c #E46C00",
"S  c #CC6000",
"D  c #B45400",
"F  c #9C4C00",
"G  c #FCFCD8",
"H  c #FCFCB8",
"J  c #FCFC9C",
"K  c #FCFC7C",
"L  c #FCF85C",
"P  c #FCF440",
"I  c #FCF420",
"U  c #FCF400",
"Y  c #E4D800",
"T  c #CCC400",
"R  c #B4AC00",
"E  c #9C9C00",
"W  c #848400",
"Q  c #706C00",
"!  c #585400",
"~  c #404000",
"^  c #849C7B",
"/  c #738C6B",
"(  c #6B7B63",
")  c #637352",
"_  c #5A6B52",
"`  c #525A4A",
"'  c #4A5242",
"]  c #425239",
"[  c #394A39",
"{  c #313931",
"}  c #313929",
"|  c #293129",
" . c #293121",
".. c #212921",
"X. c #182118",
"o. c #181818",
"O. c #00FC00",
"+. c #00EC00",
"@. c #00E000",
"#. c #00D400",
"$. c #04C800",
"%. c #04BC00",
"&. c #04B000",
"*. c #04A400",
"=. c #049800",
"-. c #048800",
";. c #047C00",
":. c #047000",
">. c #046400",
",. c #045800",
"<. c #044C00",
"1. c #044000",
"2. c #C8BFB2",
"3. c #A89A85",
"4. c #9A8C77",
"5. c #7CFCF8",
"6. c #5CFCFC",
"7. c #40FCFC",
"8. c #20FCFC",
"9. c #00FCFC",
"0. c #00E4E4",
"q. c #00CCCC",
"w. c #00B4B4",
"e. c #009C9C",
"r. c #008484",
"t. c #007070",
"y. c #005858",
"u. c #004040",
"i. c #94846B",
"p. c #8C7B67",
"a. c #847B63",
"s. c #81735D",
"d. c #7B6B5A",
"f. c #007CCC",
"g. c #006CB4",
"h. c #005C9C",
"j. c #736B5A",
"k. c #736B52",
"l. c #9C9CFC",
"z. c #7C80FC",
"x. c #5C60FC",
"c. c #4040FC",
"v. c #2024FC",
"b. c #0004FC",
"n. c #0000FC",
"m. c #0000EC",
"M. c #0000E0",
"N. c #0000D4",
"B. c #0000C8",
"V. c #0000BC",
"C. c #0000B0",
"Z. c #0000A4",
"A. c #000098",
"S. c #000088",
"D. c #00007C",
"F. c #000070",
"G. c #000064",
"H. c #000058",
"J. c #00004C",
"K. c #000040",
"L. c #282828",
"P. c #FCE034",
"I. c #FCD424",
"U. c #FCCC18",
"Y. c #FCC008",
"T. c #FCB400",
"R. c #B420FC",
"E. c #A800FC",
"W. c #9800E4",
"Q. c #8000CC",
"!. c #7400B4",
"~. c #60009C",
"^. c #500084",
"/. c #440070",
"(. c #340058",
"). c #280040",
"_. c #FCD8FC",
"`. c #FCB8FC",
"'. c #FC9CFC",
"]. c #FC7CFC",
"[. c #FC5CFC",
"{. c #FC40FC",
"}. c #FC20FC",
"|. c #FC00FC",
" X c #E000E4",
".X c #C800CC",
"XX c #B400B4",
"oX c #9C009C",
"OX c #840084",
"+X c #6C0070",
"@X c #580058",
"#X c #400040",
"$X c #FCE8DC",
"%X c #FCE0D0",
"&X c #FCD8C4",
"*X c #FCD4BC",
"=X c #FCCCB0",
"-X c #FCC4A4",
";X c #FCBC9C",
":X c #FCB890",
">X c #FCB080",
",X c #FCA470",
"<X c #FC9C60",
"1X c #F0945C",
"2X c #E88C58",
"3X c #DC8854",
"4X c #D08050",
"5X c #C87C4C",
"6X c #BC7848",
"7X c #B47044",
"8X c #A86840",
"9X c #A0643C",
"0X c #9C6038",
"qX c #905C34",
"wX c #885830",
"eX c #80502C",
"rX c #744C28",
"tX c #6C4824",
"yX c #5C4020",
"uX c #543C1C",
"iX c #483818",
"pX c #403018",
"aX c #382C14",
"sX c #28200C",
"dX c #600064",
"fX c #006464",
"gX c #006060",
"hX c #00001C",
"jX c #00002C",
"kX c #302410",
"lX c #480048",
"zX c #500050",
"xX c #000034",
"cX c gray11",
"vX c #4C4C4C",
"bX c gray36",
"nX c gray25",
"mX c gray19",
"MX c #343434",
"NX c #2E2B22",
"BX c #B8E8E8",
"VX c #9CDCDC",
"CX c #74C8C8",
"ZX c #48C0C0",
"AX c #20B4B4",
"SX c #20B0B0",
"DX c #00A4A4",
"FX c #009898",
"GX c #008C8C",
"HX c #008484",
"JX c #007C7C",
"KX c #007878",
"LX c #007474",
"PX c #007070",
"IX c #006C6C",
"UX c #980088",
/* pixels */
"0X0XqXwXwXrXeXeXwXeX9XwXwX0X8XeX0XwXeXeXeXeXqXeXrXeXwXeXeXeXeXrXeXrXrXwXeX0XeXwXeXeXwXqXeXeXeXtXeXrXeXrXeXrXeXwX0XeXqXwXeXeX0XrX",
"tXtXyXyXuXiXuXuXuXuXyXiXiXyXrXyXtXyXuXuXiXuXyXuXiXiXuXuXuXuXyXuXtXuXiXiXiXiXuXuXuXiXuXyXiXuXyXuXtXuXyXiXuXiXuXuXyXiXuXuXuXyXyXuX",
"aXpXaXpXpXiXpXaXpXpXiXpXpXaXpXaXpXpXiXpXaXaXpXpXpXpXpXaXpXaXpXaXpXpXiXaXaXaXaXpXpXaXpXpXpXaXpXaXpXpXiXaXpXaXpXpXpXpXaXpXaXpXpXiX",
"uXyXuXyXkX  eXuXtXuXtXuXtXtXtXkX  eXtXuXtXuXuXtXyXuXkX  eXuXuXuXtXyXuXuXuXkX  eXuXyXtXuXuXuXtXkX  eXtXuXuXuXuXuXuXuXkX  eXuXtXtX",
"rXwXrXwXuXsX8XrXqXrXqXrXqXqXqXuXsX8XqXrXqXrXrXqXeXrXuXsX8XrXrXeXqXeXeXrXeXuXsX8XeXeXqXeXrXrXqXuXsX8XqXrXrXrXeXeXrXrXuXsX8XeXqXqX",
"rXwXrXwXuXsX8XrXqXrXqXrXqXqXqXuXsX8XqXrXqXrXrXqXeXrXuXsX8XrXrXeXqXeXrXrXeXuXsX8XrXeXqXeXrXrXqXuXsX8XwXrXrXrXeXwXeXrXuXsX8XeXqXwX",
"rXwXrXwXuXsX8XrXqXrXqXT T T T T T T T T T T T T T T T T T T T T T T T T T T T T T T T T T T T T T T T T ! rXwXqXwXeXuXsX8XwXqXwX",
"rXwXrXwXuXsX8XrXqXrXqXT E E E E E E E E E E E E E E E E E E E E E E E E E E E E E E E E E E E E E E E E ! tXqXqXqXeXuXsX8XqXqXeX",
"rXwXrXwXuXsX8XrXqXrXqXT E ! ! ! ! ! ! ! ! ! ! ! ! ! ! ! ! ! ! ! ! ! ! ! ! ! ! ! ! ! ! ! ! ! ! ! ! ! ! E ! tXqXqXqXwXuXsX8XqXqXeX",
"rXwXrXwXuXsX8XrXqXrXqXT E ! t t t t t t t t t t t t t t t t t t t t t t t t t t t t t t t t t t t t T E ! tXqXqXqXqXuXsX8XqXqXeX",
"rXwXrXwXuXsX8XrXqXrXqXT E ! t t t t t t t t t t t t t t t t t t t t t t t t t t t t t t t t t t t t T E ! tXqXqXqXqXuXsX8XqXqXeX",
"rXwXrXwXuXsX8XrXqXrXqXT E ! t t t t t t t t t t t t t t t t n b b b n t t t t t t t t t t t t t t t T E ! tXqXqXqXqXuXsX8XqXwXrX",
"rXwXrXwXuXsX8XrXqXrXqXT E ! t t t t t t t t t t t t t t v > > > 3 > > > v t t t t t t t t t t t t t T E ! tXqXqXqXqXuXsX8XqXwXrX",
"rXwXrXwXuXsX8XrXqXrXqXT E ! t t t t t t t t t t t t v > > > > 7   8 > > > > v t t t t t t t t t t t T E ! uXqXqXqXqXuXsX8XqXwXrX",
"rXwXrXwXuXsX8XrXqXrXqXT E ! t t t t t t t t t t t v > > > > 7       3 > > > > v t t t t t t t t t t T E ! uXqXeXqXqXuXsX8XqXeXrX",
"rXwXrXwXuXsX8XrXqXrXqXT E ! t t t t t t t t t t v > > > > 7       q > > > > > > v t t t t t t t t t T E ! uXeXrXeXqXuXsX8XqXeXrX",
"rXwXrXwXuXsX8XrXqXrXqXT E ! t t t t t t t t t t > > > > 7       q > > L.8 > > > > t t t t t t t t t T E ! uXeXrXeXwXuXsX8XqXeXrX",
"eXwXrXwXuXsX8XrXqXrXqXT E ! t t t t t t t t t v > > > 7       q > > $     8 > > > v t t t t t t t t T E ! uXeXrXrXeXuXsX8XqXeXrX",
"eXwXrXwXuXsX8XrXqXrXqXT E ! t t t t t t t t t > > > > L.      6 > bX        8 > > > t t t t t t t t T E ! uXrXrXrXeXuXsX8XwXrXrX",
"eXwXrXwXuXsX8XrXqXrXqXT E ! t t t t t t t t n > > 3 > > 8       mX            8 > > n t t t t t t t T E ! uXrXrXrXrXuXsX8XwXrXrX",
"eXwXrXwXuXsX8XrXqXrXqXT E ! t t t t t t t t b > 7   q > > 8           8 q       8 > b t t t t t t t T E ! uXrXrXrXrXuXsX8XeXrXrX",
"eXwXrXwXuXsX8XrXqXrXwXT E ! t t t t t t t t b 3       q > > q       q > > q       3 b t t t t t t t T E ! uXrXrXrXrXuXsX8XeXrXrX",
"eXeXrXwXuXsX8XrXqXrXwXT E ! t t t t t t t t b > 7       q 6           q > > q   8 > b t t t t t t t T E ! uXrXrXrXrXuXsX8XeXrXrX",
"wXeXrXwXuXsX8XrXqXrXeXT E ! t t t t t t t t n > > 7             mX      q > > 3 > > n t t t t t t t T E ! uXrXrXrXrXuXsX8XrXrXrX",
"wXeXrXwXuXsX8XrXqXrXeXT E ! t t t t t t t t t > > > 7         8 > 6       L.> > > > t t t t t t t t T E ! uXrXrXrXrXuXsX8XrXrXrX",
"qXrXrXwXuXsX8XrXqXrXeXT E ! t t t t t t t t t v > > > 7     8 > > q       8 > > > v t t t t t t t t T E ! uXrXrXrXrXuXsX8XrXrXeX",
"qXrXrXwXuXsX8XrXqXrXeXT E ! t t t t t t t t t t > > > > 7 L.> > q       8 > > > > t t t t t t t t t T E ! uXrXeXeXrXuXsX8XrXrXeX",
"qXrXrXwXuXsX8XrXqXrXeXT E ! t t t t t t t t t t v > > > > > > nX      8 > > > > v t t t t t t t t t T E ! uXeXeXeXeXuXsX8XrXrXeX",
"qXrXrXwXuXsX8XrXqXrXrXT E ! t t t t t t t t t t t v > > > > 3       8 > > > > v t t t t t t t t t t T E ! uXeXwXwXeXuXsX8XrXrXwX",
"qXrXrXwXuXsX8XrXqXrXrXT E ! t t t t t t t t t t t t v > > > > 7   8 > > > > v t t t t t t t t t t t T E ! uXeXqXqXeXuXsX8XrXrXwX",
"wXrXeXwXuXsX8XrXqXrXrXT E ! t t t t t t t t t t t t t t v > > > 3 > > > v t t t t t t t t t t t t t T E ! uXwXqXqXeXuXsX8XrXeXqX",
"wXrXeXwXuXsX8XrXqXrXrXT E ! t t t t t t t t t t t t t t t t n b b b n t t t t t t t t t t t t t t t T E ! uXwXqXqXwXuXsX8XrXeXqX",
"eXrXeXwXuXsX8XrXqXeXrXT E ! t t t t t t t t t t t t t t t t t t t t t t t t t t t t t t t t t t t t T E ! yXqXqXqXwXuXsX8XeXeXqX",
"eXrXeXwXuXsX8XrXqXeXrXT E ! t t t t t t t t t t t t t t t t t t t t t t t t t t t t t t t t t t t t T E ! yXqXqXqXqXuXsX8XeXqXqX",
"eXrXeXwXuXsX8XrXqXeXrXT E ! T T T T T T T T T T T T T T T T T T T T T T T T T T T T T T T T T T T T T E ! yXqXqXqXqXuXsX8XeXqXqX",
"rXrXwXwXuXsX8XrXqXeXrXT E E E E E E E E E E E E E E E E E E E E E E E E E E E E E E E E E E E E E E E E ! tXqXqXqXqXuXsX8XqXqXqX",
"rXrXwXwXuXsX8XrXqXeXrXT ! ! ! ! ! ! ! ! ! ! ! ! ! ! ! ! ! ! ! ! ! ! ! ! ! ! ! ! ! ! ! ! ! ! ! ! ! ! ! ! ! tXqXqXqXqXuXsX8XqXqXwX",
"rXrXqXwXuXsX8XrXqXeXrXrXuXyXtXkX  eXuXtXuXuXuXuXuXuXkX  eXuXuXtXuXtXuXyXtXkX  eXuXtXuXtXuXuXtXkX  eXyXuXuXtXqXqXqXqXuXsX8XqXqXwX",
"rXrXqXwXuXsX8XrXqXwXrXrXwXqXqXuXsX8XrXwXqXrXrXeXeXrXuXsX8XrXrXqXrXqXeXrXqXuXsX8XeXqXrXqXrXrXqXuXsX8XwXrXrXwXqXqXqXqXuXsX8XqXqXeX",
"rXrXqXeXuXsX8XrXwXwXrXrXeXqXqXuXsX8XrXwXwXrXrXeXrXrXuXsX8XrXrXqXrXqXrXeXqXuXsX8XrXqXrXqXrXrXqXuXsX8XwXrXeXqXqXqXwXqXuXsX8XqXqXeX",
"eXeXeXeXrXeXrXrXwXeX0XeXwXeXeXwXqXeXeXeXtXeXrXeXrXeXrXeXwX0XeXqXwXeXeX0XrX0X0XqXwXwXrXeXeXwXeX9XwXwX0X8XeX0XwXeXeXeXeXqXeXrXeXwX",
"uXuXuXyXuXtXuXiXiXiXiXuXuXuXiXuXyXiXuXyXuXtXuXyXiXuXiXuXuXyXiXuXuXuXyXyXuXtXtXyXyXuXiXuXuXuXuXyXiXiXyXrXyXtXyXuXuXiXuXyXuXiXiXuX",
"aXpXaXpXaXpXpXiXaXaXaXaXpXpXaXpXpXpXaXpXaXpXpXiXaXpXaXpXpXpXpXaXpXaXpXpXiXaXpXaXpXpXiXpXaXpXpXiXpXpXaXpXaXpXpXiXpXaXaXpXpXpXpXpX",
"w L.L.L.L.L.L.L.L.L.L.L.L.L.L.L.L.L.L.L.L.L.L.L.L.L.L.L.L.L.L.w w L.L.L.L.L.L.L.L.L.L.L.L.L.L.L.L.L.L.L.L.L.L.L.L.L.L.L.L.L.L.w ",
"p.p.p.p.p.p.p.p.p.p.= - - * L.w w * - - = p.p.p.p.p.p.p.p.p.p.p.p.p.p.p.p.p.p.p.p.p.= - - * L.w w * - - = p.p.p.p.p.p.p.p.p.p.p.",
"k.= - = k.k.- * - - * = - # e w w & k.k.= = k.p.k.p.k.- - k.k.= = = p.p.k.p.i.p.k.= k.k.k.# e w w & p.k.p.p.i.p.p.3.i.i.p.i.3.p.",
"= = - - - = - - - p.= - = # e w w & k.p.k.k.k.k.k.= k.= - = k.k.k.k.k.p.p.p.k.= * * - = = # e w w & k.k.p.i.3.i.i.i.k.i.p.p.p.i.",
"p.= = * k.- k.k.= k.p.k.- # e w w & p.k.p.k.p.p.i.k.= = * * - k.p.= p.k.p.p.p.p.k.- = * = # e w w & k.p.k.3.3.3.p.i.i.p.p.k.p.p.",
"p.= p.k.- = k.= k.= p.k.= # e w w & p.k.p.k.i.p.p.p.= = * - & p.p.p.k.k.k.p.p.k.i.p.= & = # e w w & p.p.p.3.3.3.3.p.p.p.p.k.p.k.",
"k.k.k.- - = = k.k.= k.k.p.# e w w & p.i.p.k.p.k.k.k.k.k.- = - - = = k.= k.k.p.k.k.k.k.= - # e w w & i.i.i.p.3.3.3.p.k.p.p.k.k.p.",
"k.p.k.= - * = = p.k.k.p.3.# e w w & i.p.k.k.= k.p.k.k.- - - # & & k.= k.= p.i.i.k.p.k.k.- # e w w & p.p.i.p.p.i.i.3.i.k.k.k.p.k.",
"= = p.p.p.i.k.k.i.i.p.p.p.# e w w & k.p.p.k.k.k.= k.k.= - = = - - - & k.k.k.p.i.i.p.p.p.p.# e w w & p.= k.p.k.i.3.i.i.p.k.p.k.p.",
"cXcXcXcXcXNXNXNXNXNX} # # # e w w # # # } NXNXNXNXcXcXcXcXcXcXcXcXcXcXcXcXNXNXNXNXNX} # # # e w w # # # } NXNXNXNXcXcXcXcXcXcXcX",
"cXcXcXcXcXcXcXcXcXcXcXcXcXcXcXw w cXcXcXcXcXcXcXcXcXcXcXcXcXcXcXcXcXcXcXcXcXcXcXcXcXcXcXcXcXcXw w cXcXcXcXcXcXcXcXcXcXcXcXcXcXcX",
"L.L.L.L.L.L.L.L.L.L.L.L.L.L.L.w w L.L.L.L.L.L.L.L.L.L.L.L.L.L.L.L.L.L.L.L.L.L.L.L.L.L.L.L.L.L.w w L.L.L.L.L.L.L.L.L.L.L.L.L.L.L.",
"w * - - = p.p.p.p.p.p.p.p.p.p.p.p.p.p.p.p.p.p.p.p.p.= - - * L.w w * - - = p.p.p.p.p.p.p.p.p.p.p.p.p.p.p.p.p.p.p.p.p.= - - * L.w ",
"w & k.k.p.k.p.p.i.p.p.p.i.p.k.k.p.p.p.k.- * = - k.k.k.p.p.# e w w & p.k.p.= k.k.k.i.i.i.p.i.p.k.k.p.p.k.k.k.= - k.p.p.k.i.# e w ",
"w & k.k.k.p.= i.i.3.3.i.k.= k.k.k.p.k.p.k.- = k.k.p.k.i.p.# e w w & - k.= = = k.k.k.i.p.i.p.p.p.k.p.= k.k.k.= = = = k.p.i.# e w ",
"w & = - = p.k.i.i.i.i.i.k.p.= - = k.= k.p.= - p.p.p.k.i.p.# e w w & * k.k.= k.= k.= p.k.p.p.k.k.k.= - = = = k.= p.k.k.p.k.# e w ",
"w & * & = * i.p.i.i.3.i.k.= - = - k.k.k.k.p.= k.p.p.i.i.k.# e w w & k.k.= = - - - - k.k.p.p.k.= = & k.- k.p.k.k.p.p.k.p.p.# e w ",
"w & = * = k.k.p.p.i.i.3.p.k.= & * = = p.k.p.k.k.p.p.p.p.k.# e w w & * = k.= * - - - - - p.k.p.k.= * = = - p.p.p.i.i.k.= - # e w ",
"w & = - * = k.k.p.p.k.p.k.k.k.= - = = p.k.p.p.k.k.p.k.p.p.# e w w & = * - * = & - = * - k.= p.p.k.k.- k.= k.i.p.p.k.p.p.- # e w ",
"w # # # } NXNXNXNXcXcXcXcXcXcXcXcXcXcXcXcXNXNXNXNXNX} # # # e w w # # # } NXNXNXNXcXcXcXcXcXcXcXcXcXcXcXcXNXNXNXNXNX} # # # e w ",
"w cXcXcXcXcXcXcXcXcXcXcXcXcXcXcXcXcXcXcXcXcXcXcXcXcXcXcXcXcXcXw w cXcXcXcXcXcXcXcXcXcXcXcXcXcXcXcXcXcXcXcXcXcXcXcXcXcXcXcXcXcXw "
};
