/* XPM */
static char *_6537_524241c0e87cdbd14a46c3753f56a8ff8da7d6947b62e3157b484923b04e963b[] = {
/* columns rows colors chars-per-pixel */
"64 64 256 2 ",
"   c black",
".  c #0000A8",
"X  c #00A800",
"o  c #00A8A8",
"O  c #A80000",
"+  c #A800A8",
"@  c #A85400",
"#  c #4C4436",
"$  c gray33",
"%  c #5454FC",
"&  c #524A42",
"*  c #5E5246",
"=  c #736352",
"-  c #685D4C",
";  c #FCFC54",
":  c gray99",
">  c #ECECEC",
",  c gainsboro",
"<  c #D0D0D0",
"1  c #C0C0C0",
"2  c #B4B4B4",
"3  c gray66",
"4  c #989898",
"5  c gray55",
"6  c #7C7C7C",
"7  c gray44",
"8  c #646464",
"9  c gray33",
"0  c #484848",
"q  c gray22",
"w  c #2C2C2C",
"e  c #202020",
"r  c #FC0000",
"t  c #EC0000",
"y  c #E00000",
"u  c #D40000",
"i  c #C80000",
"p  c #BC0000",
"a  c #B00000",
"s  c #A40000",
"d  c #980000",
"f  c #880000",
"g  c #7C0000",
"h  c #700000",
"j  c #640000",
"k  c #580000",
"l  c #4C0000",
"z  c #400000",
"x  c #FCD8D8",
"c  c #FCB8B8",
"v  c #FC9C9C",
"b  c #FC7C7C",
"n  c #FC5C5C",
"m  c #FC4040",
"M  c #FC2020",
"N  c #FC0000",
"B  c #FCA85C",
"V  c #FC9840",
"C  c #FC8820",
"Z  c #FC7800",
"A  c #E46C00",
"S  c #CC6000",
"D  c #B45400",
"F  c #9C4C00",
"G  c #FCFCD8",
"H  c #FCFCB8",
"J  c #FCFC9C",
"K  c #FCFC7C",
"L  c #FCF85C",
"P  c #FCF440",
"I  c #FCF420",
"U  c #FCF400",
"Y  c #E4D800",
"T  c #CCC400",
"R  c #B4AC00",
"E  c #9C9C00",
"W  c #848400",
"Q  c #706C00",
"!  c #585400",
"~  c #404000",
"^  c #849C7B",
"/  c #738C6B",
"(  c #6B7B63",
")  c #637352",
"_  c #5A6B52",
"`  c #525A4A",
"'  c #4A5242",
"]  c #425239",
"[  c #394A39",
"{  c #313931",
"}  c #313929",
"|  c #293129",
" . c #293121",
".. c #212921",
"X. c #182118",
"o. c #181818",
"O. c #00FC00",
"+. c #00EC00",
"@. c #00E000",
"#. c #00D400",
"$. c #04C800",
"%. c #04BC00",
"&. c #04B000",
"*. c #04A400",
"=. c #049800",
"-. c #048800",
";. c #047C00",
":. c #047000",
">. c #046400",
",. c #045800",
"<. c #044C00",
"1. c #044000",
"2. c #C8BFB2",
"3. c #A89A85",
"4. c #9A8C77",
"5. c #7CFCF8",
"6. c #5CFCFC",
"7. c #40FCFC",
"8. c #20FCFC",
"9. c #00FCFC",
"0. c #00E4E4",
"q. c #00CCCC",
"w. c #00B4B4",
"e. c #009C9C",
"r. c #008484",
"t. c #007070",
"y. c #005858",
"u. c #004040",
"i. c #94846B",
"p. c #8C7B67",
"a. c #847B63",
"s. c #81735D",
"d. c #7B6B5A",
"f. c #007CCC",
"g. c #006CB4",
"h. c #005C9C",
"j. c #736B5A",
"k. c #736B52",
"l. c #9C9CFC",
"z. c #7C80FC",
"x. c #5C60FC",
"c. c #4040FC",
"v. c #2024FC",
"b. c #0004FC",
"n. c #0000FC",
"m. c #0000EC",
"M. c #0000E0",
"N. c #0000D4",
"B. c #0000C8",
"V. c #0000BC",
"C. c #0000B0",
"Z. c #0000A4",
"A. c #000098",
"S. c #000088",
"D. c #00007C",
"F. c #000070",
"G. c #000064",
"H. c #000058",
"J. c #00004C",
"K. c #000040",
"L. c #282828",
"P. c #FCE034",
"I. c #FCD424",
"U. c #FCCC18",
"Y. c #FCC008",
"T. c #FCB400",
"R. c #B420FC",
"E. c #A800FC",
"W. c #9800E4",
"Q. c #8000CC",
"!. c #7400B4",
"~. c #60009C",
"^. c #500084",
"/. c #440070",
"(. c #340058",
"). c #280040",
"_. c #FCD8FC",
"`. c #FCB8FC",
"'. c #FC9CFC",
"]. c #FC7CFC",
"[. c #FC5CFC",
"{. c #FC40FC",
"}. c #FC20FC",
"|. c #FC00FC",
" X c #E000E4",
".X c #C800CC",
"XX c #B400B4",
"oX c #9C009C",
"OX c #840084",
"+X c #6C0070",
"@X c #580058",
"#X c #400040",
"$X c #FCE8DC",
"%X c #FCE0D0",
"&X c #FCD8C4",
"*X c #FCD4BC",
"=X c #FCCCB0",
"-X c #FCC4A4",
";X c #FCBC9C",
":X c #FCB890",
">X c #FCB080",
",X c #FCA470",
"<X c #FC9C60",
"1X c #F0945C",
"2X c #E88C58",
"3X c #DC8854",
"4X c #D08050",
"5X c #C87C4C",
"6X c #BC7848",
"7X c #B47044",
"8X c #A86840",
"9X c #A0643C",
"0X c #9C6038",
"qX c #905C34",
"wX c #885830",
"eX c #80502C",
"rX c #744C28",
"tX c #6C4824",
"yX c #5C4020",
"uX c #543C1C",
"iX c #483818",
"pX c #403018",
"aX c #382C14",
"sX c #28200C",
"dX c #600064",
"fX c #006464",
"gX c #006060",
"hX c #00001C",
"jX c #00002C",
"kX c #302410",
"lX c #480048",
"zX c #500050",
"xX c #000034",
"cX c gray11",
"vX c #4C4C4C",
"bX c gray36",
"nX c gray25",
"mX c gray19",
"MX c #343434",
"NX c #2E2B22",
"BX c #B8E8E8",
"VX c #9CDCDC",
"CX c #74C8C8",
"ZX c #48C0C0",
"AX c #20B4B4",
"SX c #20B0B0",
"DX c #00A4A4",
"FX c #009898",
"GX c #008C8C",
"HX c #008484",
"JX c #007C7C",
"KX c #007878",
"LX c #007474",
"PX c #007070",
"IX c #006C6C",
"UX c #980088",
/* pixels */
"0X0XqXwXwXrXeXeXwXeX9XwXwX0X8XeX0XwXeXeXeXeXqXeXrXeXwXeXeXeXeXrXeXrXrXwXeX0XeXwXeXeXwXqXeXeXeXtXeXrXeXrXeXrXeXwX0XeXqXwXeXeX0XrX",
"tXtXyXyXuXiXuXuXuXuXyXiXiXyXrXyXtXyXuXuXiXuXyXuXiXiXuXuXuXuXyXuXtXuXiXiXiXiXuXuXuXiXuXyXiXuXyXuXtXuXyXiXuXiXuXuXyXiXuXuXuXyXyXuX",
"aXpXaXpXpXiXpXaXpXpXiXpXpXaXpXaXpXpXiXpXaXaXpXpXpXpXpXaXpXaXpXaXpXpXiXaXaXaXaXpXpXaXpXpXpXaXpXaXpXpXiXaXpXaXpXpXpXpXaXpXaXpXpXiX",
"uXyXuXyXsX  B U G     U U U U U U U U U U U U U U U U U U U U U U U U U U U U U U U U U U U U U U U U U U     G U B kX  uXuXtXtX",
"rXwXrXwXuXsXS S U tX      F F F F F F F F F F F F F F F F F F F F F F F F F F F F F F F F F F F F F F       tXB S S iXsX8XeXqXqX",
"rXwXrXwXuXsXqXtXC iXd f f     w w w w w w w w w w w w w w w w w w w w w w w w w w w w w w w w w w     d f f yXS uXyXuXsX8XeXqXwX",
"rXwXrXwXuXsX8XrXqXrXd f f f g g 7 h h h h g g g f f f d d d d f f f f g g g h h h h g g g f f 6 d d d d f f tXqXwXeXuXsX8XwXqXwX",
"rXwXrXwXuXsX8XrXqXrXd f f f g bX2 5 cXh h g g g f f f d d d d f f f f g g g h h h h g g g mX4 1 6 d d d f f rXqXqXeXuXsX8XqXqXeX",
"rXwXrXwXuXsX8XrXqXrXd f f f g e 2 3 5 cXh g g g f f f d d d d f f f f g g g h h h h g g e 3 1 1 nXd d d f f rXqXqXwXuXsX8XqXqXeX",
"rXwXrXwXuXsX8XrXqXrXd f f f bXcXnX3 3 3 mXg g g f f f d d d d f f f f g g g h h h h g q 2 1 1 vXq 6 d d f f rXqXqXqXuXsX8XqXqXeX",
"rXwXrXwXuXsX8XrXqXrXd f f f 5 2 bXq 3 3 3 nXg g f f f d d d d f f f f g g g h h h h nX2 2 1 vX7 < 3 d d f f rXqXqXqXuXsX8XqXqXeX",
"rXwXrXwXuXsX8XrXqXrXd f f mXnX2 2 4 $ 5 3 2 bXg f f f d d d d f f f f g g g h h h $ 2 2 5 7 2 1 < bXnXd f f rXqXqXqXuXsX8XqXwXrX",
"rXwXrXwXuXsX8XrXqXrXd f f 4 5 bX3 3 3 5 8 2 2 5 mXf f d d d d f f f f g g g h cX5 3 2 7 4 1 1 2 6 3 3 d f f rXqXqXqXuXsX8XqXwXrX",
"rXwXrXwXuXsX8XrXqXrXd f f 7 2 2 3 5 5 3 3 3 2 2 1 vXf d d d d f f f f g g g q 3 3 3 3 2 2 4 4 2 < < 6 d f f rXqXqXqXuXsX8XqXwXrX",
"rXwXrXwXuXsX8XrXqXrXd f 6 vXbX2 2 3 3 5 $ 2 2 2 1 1 4 d d d d f f f f g g 5 3 3 3 3 2 bX5 1 1 1 < 6 bX5 f f rXeXqXqXuXsX8XqXeXrX",
"rXwXrXwXuXsX8XrXqXrXd f 1 1 2 5 5 7 5 3 3 2 2 2 1 1 1 5 d d d vX7 7 q g 7 2 3 3 3 3 2 2 2 3 5 4 3 < < < f f yXrXeXqXuXsX8XqXeXrX",
"rXwXrXwXuXsX8XrXqXrXd f q 4 2 2 2 3 4 8 $ 2 2 2 1 1 1 3 d d 5 1 1 1 4 g 5 2 3 3 3 3 2 bX7 2 1 1 < < 3 0 f f yXrXeXwXuXsX8XqXeXrX",
"eXwXrXwXuXsX8XrXqXrXd f 6 8 nXbX5 4 3 3 3 2 2 2 1 1 1 bXd 0 < 1 1 6 f g nX2 3 3 3 3 2 2 2 1 2 4 6 bX7 5 f f yXrXrXeXuXsX8XqXeXrX",
"eXwXrXwXuXsX8XrXqXrXd f 1 1 2 2 3 5 8 $ 5 2 2 2 1 1 3 d d 7 < 1 1 8 f g g 4 3 3 3 3 2 5 bX6 4 2 < < < < f f uXrXrXeXuXsX8XwXrXrX",
"eXwXrXwXuXsX8XrXqXrXd f q 4 3 3 3 4 5 5 $ 2 2 2 1 1 7 d d 6 < 1 1 8 f g g bX3 3 3 3 2 bX5 4 2 2 1 1 3 0 f f uXrXrXrXuXsX8XwXrXrX",
"eXwXrXwXuXsX8XrXqXrXd f 6 7 7 5 3 3 3 3 3 2 2 2 1 1 1 0 0 < < 1 1 1 q g w 2 3 3 3 3 2 2 2 1 1 2 3 5 6 5 f f uXrXrXrXuXsX8XeXrXrX",
"eXwXrXwXuXsX8XrXqXrXd f 4 1 2 2 2 4 5 8 5 2 2 2 1 1 1 < < < 2 nX2 1 1 2 2 2 3 3 3 3 2 5 7 4 2 1 < < < 3 f f uXrXrXrXuXsX8XeXrXrX",
"eXeXrXwXuXsX8XrXqXrXd f f vX7 bXbX$ 7 4 3 2 2 2 1 1 1 < < 1 q 6 3 3 1 2 2 2 3 3 3 3 2 2 3 5 7 7 6 5 bXd f f uXrXrXrXuXsX8XeXrXrX",
"wXeXrXwXuXsX8XrXqXrXd f f q 5 2 2 3 3 5 mX5 2 2 1 1 1 < 2 2 q 8 mXmX3 2 2 2 3 3 3 3 5 q 5 1 1 1 < 3 0 d f f uXrXrXrXuXsX8XrXrXrX",
"wXeXrXwXuXsX8XrXqXrXd f f f bX4 4 8 q $ 4 2 2 2 1 1 1 < q 5 7 L.8 6 q 2 2 2 3 3 3 3 2 3 bXvX6 3 2 6 d d f f uXrXrXrXuXsX8XrXrXrX",
"qXrXrXwXuXsX8XrXqXrXd f f f g g e 8 3 3 3 7 2 3 3 4 8 < 2 q q 8 q 3 3 2 2 $ 5 5 4 3 7 2 2 1 6 mXd d d d f f uXrXrXrXuXsX8XrXrXeX",
"qXrXrXwXuXsX8XrXqXrXd f f f g g 5 3 5 $ 5 2 3 e e vX4 < < 2 2 6 mX3 1 2 2 5 q   cX4 2 5 bX3 1 4 d d d d f f uXeXeXrXuXsX8XrXrXeX",
"qXrXrXwXuXsX8XrXqXrXd f f f g g g h mX4 3 4 w cX0 1 1 < < < 2 L.3 1 1 2 2 2 3 mX  e 4 2 3 0 f f d d d d f f yXeXeXeXuXsX8XrXrXeX",
"qXrXrXwXuXsX8XrXqXrXd f f f g g g cX5 4 8 7 e cX3 1 1 < < 3 < 1 1 1 2 2 2 2 3 5   cX7 7 3 4 L.f d d d d f f yXwXwXeXuXsX8XrXrXwX",
"qXrXrXwXuXsX8XrXqXrXd f f f g g g h h h q 2 nXe 1 1 1 < < bX< 1 1 6 L.2 2 2 3 3 cXq 2 nXg f f f d d d d f f yXqXqXeXuXsX8XrXrXwX",
"wXrXeXwXuXsX8XrXqXrXd f f f g g g h $ 3 vX5 7 cX3 1 1 < 2 bX< 1 1 3 e 4 2 2 3 5 cX8 5 $ 2 7 f f d d d d f f tXqXqXeXuXsX8XrXeXqX",
"wXrXeXwXuXsX8XrXqXrXd f f f g g g e 3 3 3 7 4 cXmX7 1 < $ 5 < 1 1 1 mXnX2 2 $ cXcX5 7 2 2 1 q f d d d d f f tXqXqXwXuXsX8XrXeXqX",
"eXrXeXwXuXsX8XrXqXeXd f f f g g g h h vXq 4 2 2 2 1 1 bXd 2 < 1 1 1 vXg nX2 3 4 3 3 4 nX$ f f f d d d d f f rXqXqXwXuXsX8XeXeXqX",
"eXrXeXwXuXsX8XrXqXeXd f f f g g g h e 4 3 5 5 2 vXvXf d d 1 < 1 1 1 7 g g g q q 3 5 5 2 3 q f f d d d d f f rXqXqXqXuXsX8XeXqXqX",
"eXrXeXwXuXsX8XrXqXeXd f f f g g g h cX4 5 g nX2 7 f f d d 5 < 1 1 3 vXg g g h $ 3 q g 5 3 mXf f d d d d f f rXqXqXqXuXsX8XeXqXqX",
"rXrXwXwXuXsX8XrXqXeXd f f f g g g h h h h g g bXf f f d d d $ 6 0 f f g g g h h $ h g g g f f f d d d d f f rXqXqXqXuXsX8XqXqXqX",
"rXrXwXwXuXsX8XrXqXeXd f f f g g g h h h h g g g f f f d d d d f f f f g g g h h h h g g g f f f d d d d f f rXqXqXqXuXsX8XqXqXwX",
"rXrXqXwXuXsX8XrXG eXd f f     w w w w w w w w w w w w w w w w w w w w w w w w w w w w w w w w w w     d f f rXG eXqXuXsX8XqXqXwX",
"rXrXqXwXuXsXB U G B       U U U U U U U U U U U U U U U U U U U U U U U U U U U U U U U U U U U U U U       U G U B uXsX8XqXqXeX",
"rXrXqXeXuXsXS S U     F F F F F F F F F F F F F F F F F F F F F F F F F F F F F F F F F F F F F F F F F F     B S S iXsX8XqXqXeX",
"eXeXeXeXrXeXrXrXwXeX0XeXwXeXeXwXqXeXeXeXtXeXrXeXrXeXrXeXwX0XeXqXwXeXeX0XrX0X0XqXwXwXrXeXeXwXeX9XwXwX0X8XeX0XwXeXeXeXeXqXeXrXeXwX",
"uXuXuXyXuXtXuXiXiXiXiXuXuXuXiXuXyXiXuXyXuXtXuXyXiXuXiXuXuXyXiXuXuXuXyXyXuXtXtXyXyXuXiXuXuXuXuXyXiXiXyXrXyXtXyXuXuXiXuXyXuXiXiXuX",
"aXpXaXpXaXpXpXiXaXaXaXaXpXpXaXpXpXpXaXpXaXpXpXiXaXpXaXpXpXpXpXaXpXaXpXpXiXaXpXaXpXpXiXpXaXpXpXiXpXpXaXpXaXpXpXiXpXaXaXpXpXpXpXpX",
"w L.L.L.L.L.L.L.L.L.L.L.L.L.L.L.L.L.L.L.L.L.L.L.L.L.L.L.L.L.L.w w L.L.L.L.L.L.L.L.L.L.L.L.L.L.L.L.L.L.L.L.L.L.L.L.L.L.L.L.L.L.w ",
"p.p.p.p.p.p.p.p.p.p.= - - * L.w w * - - = p.p.p.p.p.p.p.p.p.p.p.p.p.p.p.p.p.p.p.p.p.= - - * L.w w * - - = p.p.p.p.p.p.p.p.p.p.p.",
"k.= - = k.k.- * - - * = - # e w w & k.k.= = k.p.k.p.k.- - k.k.= = = p.p.k.p.i.p.k.= k.k.k.# e w w & p.k.p.p.i.p.p.3.i.i.p.i.3.p.",
"= = - - - = - - - p.= - = # e w w & k.p.k.k.k.k.k.= k.= - = k.k.k.k.k.p.p.p.k.= * * - = = # e w w & k.k.p.i.3.i.i.i.k.i.p.p.p.i.",
"p.= = * k.- k.k.= k.p.k.- # e w w & p.k.p.k.p.p.i.k.= = * * - k.p.= p.k.p.p.p.p.k.- = * = # e w w & k.p.k.3.3.3.p.i.i.p.p.k.p.p.",
"p.= p.k.- = k.= k.= p.k.= # e w w & p.k.p.k.i.p.p.p.= = * - & p.p.p.k.k.k.p.p.k.i.p.= & = # e w w & p.p.p.3.3.3.3.p.p.p.p.k.p.k.",
"k.k.k.- - = = k.k.= k.k.p.# e w w & p.i.p.k.p.k.k.k.k.k.- = - - = = k.= k.k.p.k.k.k.k.= - # e w w & i.i.i.p.3.3.3.p.k.p.p.k.k.p.",
"k.p.k.= - * = = p.k.k.p.3.# e w w & i.p.k.k.= k.p.k.k.- - - # & & k.= k.= p.i.i.k.p.k.k.- # e w w & p.p.i.p.p.i.i.3.i.k.k.k.p.k.",
"= = p.p.p.i.k.k.i.i.p.p.p.# e w w & k.p.p.k.k.k.= k.k.= - = = - - - & k.k.k.p.i.i.p.p.p.p.# e w w & p.= k.p.k.i.3.i.i.p.k.p.k.p.",
"cXcXcXcXcXNXNXNXNXNX} # # # e w w # # # } NXNXNXNXcXcXcXcXcXcXcXcXcXcXcXcXNXNXNXNXNX} # # # e w w # # # } NXNXNXNXcXcXcXcXcXcXcX",
"cXcXcXcXcXcXcXcXcXcXcXcXcXcXcXw w cXcXcXcXcXcXcXcXcXcXcXcXcXcXcXcXcXcXcXcXcXcXcXcXcXcXcXcXcXcXw w cXcXcXcXcXcXcXcXcXcXcXcXcXcXcX",
"L.L.L.L.L.L.L.L.L.L.L.L.L.L.L.w w L.L.L.L.L.L.L.L.L.L.L.L.L.L.L.L.L.L.L.L.L.L.L.L.L.L.L.L.L.L.w w L.L.L.L.L.L.L.L.L.L.L.L.L.L.L.",
"w * - - = p.p.p.p.p.p.p.p.p.p.p.p.p.p.p.p.p.p.p.p.p.= - - * L.w w * - - = p.p.p.p.p.p.p.p.p.p.p.p.p.p.p.p.p.p.p.p.p.= - - * L.w ",
"w & k.k.p.k.p.p.i.p.p.p.i.p.k.k.p.p.p.k.- * = - k.k.k.p.p.# e w w & p.k.p.= k.k.k.i.i.i.p.i.p.k.k.p.p.k.k.k.= - k.p.p.k.i.# e w ",
"w & k.k.k.p.= i.i.3.3.i.k.= k.k.k.p.k.p.k.- = k.k.p.k.i.p.# e w w & - k.= = = k.k.k.i.p.i.p.p.p.k.p.= k.k.k.= = = = k.p.i.# e w ",
"w & = - = p.k.i.i.i.i.i.k.p.= - = k.= k.p.= - p.p.p.k.i.p.# e w w & * k.k.= k.= k.= p.k.p.p.k.k.k.= - = = = k.= p.k.k.p.k.# e w ",
"w & * & = * i.p.i.i.3.i.k.= - = - k.k.k.k.p.= k.p.p.i.i.k.# e w w & k.k.= = - - - - k.k.p.p.k.= = & k.- k.p.k.k.p.p.k.p.p.# e w ",
"w & = * = k.k.p.p.i.i.3.p.k.= & * = = p.k.p.k.k.p.p.p.p.k.# e w w & * = k.= * - - - - - p.k.p.k.= * = = - p.p.p.i.i.k.= - # e w ",
"w & = - * = k.k.p.p.k.p.k.k.k.= - = = p.k.p.p.k.k.p.k.p.p.# e w w & = * - * = & - = * - k.= p.p.k.k.- k.= k.i.p.p.k.p.p.- # e w ",
"w # # # } NXNXNXNXcXcXcXcXcXcXcXcXcXcXcXcXNXNXNXNXNX} # # # e w w # # # } NXNXNXNXcXcXcXcXcXcXcXcXcXcXcXcXNXNXNXNXNX} # # # e w ",
"w cXcXcXcXcXcXcXcXcXcXcXcXcXcXcXcXcXcXcXcXcXcXcXcXcXcXcXcXcXcXw w cXcXcXcXcXcXcXcXcXcXcXcXcXcXcXcXcXcXcXcXcXcXcXcXcXcXcXcXcXcXw "
};
