/* XPM */
static char *_0b44f92a7314866f22b489ccaf958fa6DjgOKGwWGJr3T5L[] = {
/* columns rows colors chars-per-pixel */
"83 22 218 2 ",
"   c #020300",
".  c #0D0000",
"X  c #010F00",
"o  c #080800",
"O  c #0B0008",
"+  c #0F0B08",
"@  c #130102",
"#  c #1D0C05",
"$  c #191308",
"%  c #230403",
"&  c #290304",
"*  c #230800",
"=  c #2F0109",
"-  c #23090C",
";  c #3A0503",
":  c #360A07",
">  c #2D120C",
",  c #291708",
"<  c #34140E",
"1  c #341C0E",
"2  c #3A190B",
"3  c #340C13",
"4  c #3E0C13",
"5  c #311B13",
"6  c #3F1718",
"7  c #381313",
"8  c #282518",
"9  c #3E2216",
"0  c #2D1E23",
"q  c #2D3D23",
"w  c #0E3111",
"e  c #450606",
"r  c #4A0B06",
"t  c #450B09",
"y  c #5D1101",
"u  c #4F0713",
"i  c #590B18",
"p  c #481210",
"a  c #4F1F1F",
"s  c #491917",
"d  c #5F1A13",
"f  c #561417",
"g  c #521108",
"h  c #62110D",
"j  c #681415",
"k  c #54220B",
"l  c #552F1A",
"z  c #47361D",
"x  c #5D341B",
"c  c #49291A",
"v  c #612F18",
"b  c #78281F",
"n  c #77241D",
"m  c #551A20",
"M  c #6F1922",
"N  c #7D1828",
"B  c #502921",
"V  c #5A2625",
"C  c #4D3A27",
"Z  c #583323",
"A  c #612C2B",
"S  c #672B28",
"D  c #7E2429",
"F  c #643722",
"G  c #7B3225",
"H  c #7B352E",
"J  c #73392C",
"K  c #7C3A28",
"L  c #653E39",
"P  c #7C3D32",
"I  c #7A2836",
"U  c #6B4C30",
"Y  c #7C4331",
"T  c #920D10",
"R  c #89111A",
"E  c #94191B",
"W  c #A10F1A",
"Q  c #8E251F",
"!  c #982814",
"~  c #A5301F",
"^  c #8D1E24",
"/  c #961D29",
"(  c #9D1E2B",
")  c #911724",
"_  c #AF1F28",
"`  c #A11F21",
"'  c #B71B28",
"]  c #BC1C28",
"[  c #8D2428",
"{  c #8C2C2E",
"}  c #872728",
"|  c #9C2323",
" . c #952429",
".. c #9C222C",
"X. c #962A29",
"o. c #8E3325",
"O. c #85312C",
"+. c #8B3826",
"@. c #973428",
"#. c #842933",
"$. c #9C2C3A",
"%. c #803031",
"&. c #843A33",
"*. c #83383C",
"=. c #97363C",
"-. c #A22D2D",
";. c #A92826",
":. c #BC2B2B",
">. c #A43A2A",
",. c #A12130",
"<. c #A62D33",
"1. c #B72E36",
"2. c #A93037",
"3. c #A93A34",
"4. c #AE3E3B",
"5. c #D32A2F",
"6. c #CA2334",
"7. c #DC213C",
"8. c #CA3435",
"9. c #D33532",
"0. c #C52A28",
"q. c #FF3727",
"w. c #FE3D2E",
"e. c #EE3D36",
"r. c #E53C3F",
"t. c #E03835",
"y. c #FB3634",
"u. c #F33E34",
"i. c #FC3C35",
"p. c #F23D3C",
"a. c #FE3D3C",
"s. c #FC373E",
"d. c #984736",
"f. c #97423D",
"g. c #A9453A",
"h. c #D2513E",
"j. c #EE402B",
"k. c #E7492E",
"l. c #EC492A",
"z. c #FD422E",
"x. c #F8472E",
"c. c #EF4430",
"v. c #E54B35",
"b. c #ED4B33",
"n. c #EC433B",
"m. c #ED4D3B",
"M. c #F54435",
"N. c #FC4434",
"B. c #F44B34",
"V. c #FD4A35",
"C. c #F4453C",
"Z. c #FD453B",
"A. c #F54B3B",
"S. c #FD4B3C",
"D. c #E3563B",
"F. c #EF503A",
"G. c #E95436",
"H. c #F35335",
"J. c #F4513B",
"K. c #FC523C",
"L. c #F75738",
"P. c #A23242",
"I. c #C53E42",
"U. c #D93D40",
"Y. c #EF384A",
"T. c #E73B43",
"R. c #F63C43",
"E. c #FE3C43",
"W. c #FF3649",
"Q. c #FE3E4A",
"!. c #F33947",
"~. c #FF3C52",
"^. c #A64147",
"/. c #B34143",
"(. c #CF4940",
"). c #C44347",
"_. c #DB4241",
"`. c #DB4A44",
"'. c #D7434F",
"]. c #DC4C4B",
"[. c #DD404B",
"{. c #CC4553",
"}. c #D65750",
"|. c #E34641",
" X c #ED4445",
".X c #E44E41",
"XX c #EF4D43",
"oX c #E44B4C",
"OX c #EC4B4C",
"+X c #E7464C",
"@X c #F44544",
"#X c #FE4543",
"$X c #F44C42",
"%X c #FE4B43",
"&X c #F44549",
"*X c #FE454B",
"=X c #F34D4B",
"-X c #FD4C4A",
";X c #ED5244",
":X c #E4544B",
">X c #E85148",
",X c #E75742",
"<X c #F45243",
"1X c #FD5243",
"2X c #F65A44",
"3X c #FF5A43",
"4X c #F6534A",
"5X c #FE534A",
"6X c #F05948",
"7X c #FF594D",
"8X c #ED4A55",
"9X c #F34C57",
"0X c #FE4952",
"qX c #FA4756",
"wX c #FF5558",
"eX c #FE5C51",
"rX c #E75562",
"tX c None",
/* pixels */
"tXtXtXtXt $...G &.tXtXtXtXtX{ ;.-.[ < tXtXtXtXtXtXtXtXtXtXtXtXtXtXtXj { P  .#.tXtXtXtX> X.@.o.G tXtXtXtXtXtXtXtXtXtXtXtXtXtXtXtXd ;.! +.B tXtXtXtXi { +.X.O.tXtXtXtXtX",
"tXtX= O.;.&X&X$X:XG tXtX@ D h.j.$XOXg.} a tXtXtXtXtXtXtXtXtXtXtXs n 9.Q.-XC.oXl tXtX4 ( R.#XC.$X{ H tXtXtXtXtXtXtXtXtXtXtXtXj } t.=XA.@X).S tXtXr 1.0XZ.$X].H o tXtXtX",
"tX2 ` ;XA.N.V.z.V..XH > N T.Z.V.S.K.C.Q.I.c tXtXtXtXtXtXtXtXtXu 8.n.1XN.V.V.V.h.A , ,.Q.%XS.N.Z.M.,XY 8 tXtXtXtXtXtXtXtXtXf U.e.Z.A.#X%X#X`.d 4 0.p.S.c.K.S.#X X*.$ tX",
"tXi Y.M.A.S.J.S.i.1Xm.@.T.%XV.$Xq.B.S.1X&X3.tXtXtXtXtXtXtXtXtX/ E.Z.N.C.S.V.M.-X`.>.@Xi.2Xk.S.4XN.V.>XC tXtXtXtXtXtXtXtXtX[ e.3X*Xp.Z.J.B.K.}.@.XXZ.Z.V.S.Z.#X%X}.C tX",
"- ) s.N.S.Z.@X%Xa.M.V.D.S.l.S.*XS.;XB.m.$Xn.B tXtXtXtXtXtXtXt ' &X1X%X@X%XA.2XZ.%XN.S.S.J.S.*X=X%Xi.Z.d.7 tXtXtXtXtXtXtXg :.%XF.*X-XV.K.K.M.#X$X$XE.C.2X1XA.v.A.%XG 1 ",
"e 8XN.L.K.N.%XZ.V.J.J.S.S.1XZ.%XC.-X%XZ.S.OX^.tXtXtXtXtXtXtX^  XC.V.J.1X$Xk.K.Z.n.#XA.1Xu.%Xa.m.@XS.S..X&.tXtXtXtXtXtXtX| @X#Xm.$XA.F.z.a.5XE.#XD.Z.1XM.i.S.3XN.Z.h.Z ",
"h R.S.L.u.1XV.L.V.A.@X#Xi.Z.%XK.K.i.5XZ.b.4X{.tXtXtXtXtXtXtXW %X%XS.V.y.-XV.S.Z.1XZ.M.%X5Xi.%XG.#XA.B.%XK tXtXtXtXtXtXtX6.#XZ.1XS.N.1X5XS.A.;XA.S.S.Z.S.%XS.M.S.V.wXl ",
"j ~.Z.c.%XC.%Xx.N.%XE.A.S.XXZ.S.b.S.Z.V.N.Z./.tXtXtXtXtXtXtX] C.C.A.V.$X6XB.Z.#XV.S.Z.%X$X%XM.K.Z.N.S.S.x tXtXtXtXtXtXtX7.C.A.x.V.5XQ.=XB.N.x.Z.%XZ.@X5X$X4X1XZ.J.R.q ",
"t `.%XV.Z.C.S.N.%X%XS.Z.S.Z.N.1X#X#X%XZ.J.`.f.tXtXtXtXtXtXtX( oX%XZ.5XA.Z.N.%X#X#X#XA.1XA.A.Z.%X#XS.B.&XL tXtXtXtXtXtXtX..$XN.1X#X#X#X#X%X$X1XZ.1XA.-X5Xa.i.%XA.G.5X8 ",
"# T a.b.J.#XZ.S.S.%XS.V.S.Z.S.%Xa.-XS.M.1X>.* tXtXtXtXtXtXtX% 6.Z.M.A.a.p.%X%XS.%X%XZ.%XS.#X%X#X2X%XE.v   tXtXtXtXtXtXtX& 5.-X@X%XA.S.S.%X-XC.Z.J.#Xa.%XA.1XV.v.p.g   ",
"tX..@X$X-Xn.-XJ.S.S.S.S.S.S.S.S.#X1XH.V.n.P tXtXtXtXtXtXtXtX  P.Z.A.S.S.#X=X%XA.A.Z.#X#XZ.-X-XZ.M.-X8Xq tXtXtXtXtXtXtXtXtX2.*XZ.B.K.N.A.%Xy.Z.3X%X#XZ.J.S.A.<X$XrXw tX",
"tX  [ r.-XZ.M.%XS.S.S.S.S.Z.S.M.A.G.B.eX4.7 tXtXtXtXtXtXtXtXtX@ | #Xx.B.2Xa.S.S.%XZ.%X%X$X%XZ.h.1XE.L   tXtXtXtXtXtXtXtXtX& ;.*XS.S.M.Z.%XZ.%XB.@Xa.A.L.A.Z.&X:XV   tX",
"tXtX  [ e.1XN.#XS.Z.S.S.S.S.%XS.B.V.A.>.< tXtXtXtXtXtXtXtXtXtXtX3 ( #XJ.K.S.%X%XS.%X#XK.A.Z.J.%X|.J   tXtXtXtXtXtXtXtXtXtXtXt ;.E.e.1X%XZ.1XA.Z.-XA.S.B.A.qX9XF   tXtX",
"tXtXtX  y  XC.%XS.S.S.S.S.Z.S.S.Z.%Xg.5 tXtXtXtXtXtXtXtXtXtXtXtXtX=  .s.M.S.S.C.$X#XV.V.V.S.$X#XP > tXtXtXtXtXtXtXtXtXtXtXtXtX; ;.wX#XM.A.C.V.S.&XeXj.V.*X'.V   tXtXtX",
"tXtXtXtX  y 0X&XS.%XS.Z.S.Z.V.A.&X/.5 tXtXtXtXtXtXtXtXtXtXtXtXtXtXtX= / =XA.V.1X%XS.K.B.1X*X!.U # tXtXtXtXtXtXtXtXtXtXtXtXtXtXtX: ..&X5X1XS.-X#X@XS.x.A.oXV X tXtXtXtX",
"tXtXtXtXtXO j  Xi.V.Z.Z.%XS.S.1X=.5 tXtXtXtXtXtXtXtXtXtXtXtXtXtXtXtXtX3 E C.Z.%XA.Z.z.B.S.oXJ # tXtXtXtXtXtXtXtXtXtXtXtXtXtXtXtXtX; ;.a.#XA.$Xa.-XS.w.,Xx   tXtXtXtXtX",
"tXtXtXtXtXtX& m !.A.N.N.A.S.<X@.0 tXtXtXtXtXtXtXtXtXtXtXtXtXtXtXtXtXtXtXs  . XZ.S.S.V.%X<XO.- tXtXtXtXtXtXtXtXtXtXtXtXtXtXtXtXtXtXtX> ;.Q.S.m.A.V.Z.].S   tXtXtXtXtXtX",
"tXtXtXtXtXtXtX& n r.S.F.M.%Xg.9 tXtXtXtXtXtXtXtXtXtXtXtXtXtXtXtXtXtXtXtXtX: | @XV.B.<XoXG # tXtXtXtXtXtXtXtXtXtXtXtXtXtXtXtXtXtXtXtXtXf ;.#XZ.S.V.:XH . tXtXtXtXtXtXtX",
"tXtXtXtXtXtXtXtX  R  XC.-X>.1 tXtXtXtXtXtXtXtXtXtXtXtXtXtXtXtXtXtXtXtXtXtXtX; $.M.#X8XI 8 tXtXtXtXtXtXtXtXtXtXtXtXtXtXtXtXtXtXtXtXtXtXtXp :.#X%X|.b $ tXtXtXtXtXtXtXtX",
"tXtXtXtXtXtXtXtXtX  [ Y.g.2 tXtXtXtXtXtXtXtXtXtXtXtXtXtXtXtXtXtXtXtXtXtXtXtXtX% ~ [.=.  tXtXtXtXtXtXtXtXtXtXtXtXtXtXtXtXtXtXtXtXtXtXtXtXtXe <. XP . tXtXtXtXtXtXtXtXtX",
"tXtXtXtXtXtXtXtXtXtX    5 tXtXtXtXtXtXtXtXtXtXtXtXtXtXtXtXtXtXtXtXtXtXtXtXtXtXtX; o   tXtXtXtXtXtXtXtXtXtXtXtXtXtXtXtXtXtXtXtXtXtXtXtXtXtXtX7 I + tXtXtXtXtXtXtXtXtXtX",
"tXtXtXtXtXtXtXtXtXtXtXtXtXtXtXtXtXtXtXtXtXtXtXtXtXtXtXtXtXtXtXtXtXtXtXtXtXtXtXtXtXtXtXtXtXtXtXtXtXtXtXtXtXtXtXtXtXtXtXtXtXtXtXtXtXtXtXtXtXtXtXtXtXtXtXtXtXtXtXtXtXtXtX"
};
